<?xml version="1.0" encoding="UTF-8" standalone="no"?>
<!-- Generator: Adobe Illustrator 16.0.0, SVG Export Plug-In . SVG Version: 6.00 Build 0)  -->

<svg
   xmlns:dc="http://purl.org/dc/elements/1.1/"
   xmlns:cc="http://creativecommons.org/ns#"
   xmlns:rdf="http://www.w3.org/1999/02/22-rdf-syntax-ns#"
   xmlns:svg="http://www.w3.org/2000/svg"
   xmlns="http://www.w3.org/2000/svg"
   xmlns:sodipodi="http://sodipodi.sourceforge.net/DTD/sodipodi-0.dtd"
   xmlns:inkscape="http://www.inkscape.org/namespaces/inkscape"
   version="1.1"
   id="Layer_1"
   x="0px"
   y="0px"
   width="136.913px"
   height="136.913px"
   viewBox="0 0 136.913 136.913"
   enable-background="new 0 0 136.913 136.913"
   xml:space="preserve"
   inkscape:version="0.91 r"
   sodipodi:docname="icon-mask.svg"><metadata
   id="metadata351"><rdf:RDF><cc:Work
       rdf:about=""><dc:format>image/svg+xml</dc:format><dc:type
         rdf:resource="http://purl.org/dc/dcmitype/StillImage" /><dc:title></dc:title></cc:Work></rdf:RDF></metadata><defs
   id="defs349" /><sodipodi:namedview
   pagecolor="#ffffff"
   bordercolor="#666666"
   borderopacity="1"
   objecttolerance="10"
   gridtolerance="10"
   guidetolerance="10"
   inkscape:pageopacity="0"
   inkscape:pageshadow="2"
   inkscape:window-width="2560"
   inkscape:window-height="981"
   id="namedview347"
   showgrid="false"
   inkscape:zoom="1.7237224"
   inkscape:cx="68.456497"
   inkscape:cy="68.456497"
   inkscape:window-x="0"
   inkscape:window-y="22"
   inkscape:window-maximized="1"
   inkscape:current-layer="g11" />
<g
   id="g3">
	<g
   id="g5">
		<g
   id="g7">
			<g
   id="g9">
				<g
   id="g11">
					<g
   id="g13"
   style="fill:#676c53">
						<g
   id="g15"
   style="fill:#676c53">
							<g
   id="g17"
   style="fill:#676c53">
								<circle
   fill="#344E5D"
   cx="68.456"
   cy="68.455"
   r="63.333"
   id="circle19"
   style="fill:#676c53" />
							</g>
						</g>
					</g>
				<g
   id="g5672"
   transform="matrix(0.78551128,0,0,0.78551128,29.151084,29.151084)"
   style="fill:#ffffff"><g
     id="g5644"
     style="fill:#ffffff"><path
       id="path5646"
       d="M 50.038,0 C 22.402,0 0,22.403 0,50.038 c 0,27.636 22.402,50.038 50.038,50.038 27.636,0 50.038,-22.402 50.038,-50.038 C 100.076,22.403 77.674,0 50.038,0 Z m 0.414,87.896 c -21.137,0 -38.271,-17.135 -38.271,-38.272 0,-21.137 17.134,-38.273 38.271,-38.273 21.14,0 38.275,17.136 38.275,38.273 0,21.137 -17.135,38.272 -38.275,38.272 z"
       inkscape:connector-curvature="0"
       style="fill:#ffffff" /><path
       id="path5648"
       d="m 50.452,19.023 c -1.827,0 -3.308,-1.481 -3.308,-3.309 l 0,-9.325 c 0,-1.827 1.481,-3.308 3.308,-3.308 1.827,0 3.308,1.481 3.308,3.308 l 0,9.326 c 0,1.827 -1.482,3.308 -3.308,3.308 z"
       inkscape:connector-curvature="0"
       style="fill:#ffffff" /><path
       id="path5650"
       d="m 50.038,96.768 c -1.827,0 -3.308,-1.479 -3.308,-3.308 l 0,-9.325 c 0,-1.828 1.481,-3.31 3.308,-3.31 1.827,0 3.309,1.481 3.309,3.31 l 0,9.325 c 0,1.828 -1.482,3.308 -3.309,3.308 z"
       inkscape:connector-curvature="0"
       style="fill:#ffffff" /><path
       id="path5652"
       d="m 16.243,53.347 -9.326,0 c -1.827,0 -3.308,-1.481 -3.308,-3.309 0,-1.828 1.481,-3.308 3.308,-3.308 l 9.326,0 c 1.827,0 3.308,1.481 3.308,3.308 0,1.827 -1.481,3.309 -3.308,3.309 z"
       inkscape:connector-curvature="0"
       style="fill:#ffffff" /><path
       id="path5654"
       d="m 94.217,52.933 -9.325,0 c -1.827,0 -3.309,-1.481 -3.309,-3.308 0,-1.827 1.481,-3.308 3.309,-3.308 l 9.325,0 c 1.827,0 3.309,1.481 3.309,3.308 -10e-4,1.826 -1.482,3.308 -3.309,3.308 z"
       inkscape:connector-curvature="0"
       style="fill:#ffffff" /><circle
       id="circle5656"
       r="6.4390001"
       cy="51.456001"
       cx="50.273998"
       style="fill:#ffffff" /><path
       id="path5658"
       d="m 50.272,53.11 c -0.355,0 -0.714,-0.113 -1.016,-0.349 -0.721,-0.563 -0.848,-1.602 -0.288,-2.322 L 66.514,27.93 c 0.561,-0.721 1.602,-0.851 2.323,-0.288 0.721,0.562 0.848,1.601 0.287,2.321 L 51.579,52.474 c -0.326,0.417 -0.814,0.636 -1.307,0.636 z"
       inkscape:connector-curvature="0"
       style="fill:#ffffff" /><path
       id="path5660"
       d="m 50.037,53.938 c -0.454,0 -0.915,-0.124 -1.325,-0.385 L 30.93,42.299 c -1.158,-0.733 -1.504,-2.266 -0.771,-3.424 0.732,-1.158 2.268,-1.5 3.423,-0.77 L 51.364,49.36 c 1.158,0.733 1.504,2.264 0.771,3.424 -0.472,0.746 -1.276,1.154 -2.098,1.154 z"
       inkscape:connector-curvature="0"
       style="fill:#ffffff" /></g></g></g>
			</g>
		</g>
	</g>
	
</g>
</svg>